<svg xmlns="http://www.w3.org/2000/svg" width="18" height="18" viewBox="0 0 18 18" fill="none">
  <path d="M12.7656 9.52734C12.7578 8.11328 13.6875 7.32422 14.6406 6.85547C14.1016 6.07031 13.2422 5.63672 12.4219 5.60156C11.5547 5.52344 10.7344 6.10547 10.3008 6.10547C9.86719 6.10547 9.1875 5.60156 8.46094 5.60156C7.25781 5.61328 6 6.46875 6 8.22656C6 8.76562 6.07031 9.32812 6.25781 9.91016C6.5625 10.7812 7.83594 13.5 9.14062 13.4766C9.71875 13.4648 10.125 13.0664 10.8516 13.0664C11.5781 13.0664 11.9414 13.4766 12.5859 13.4766C13.9219 13.4648 15.0469 10.9922 15.3516 10.1094C13.7344 9.43359 12.7656 9.52734 12.7656 9.52734ZM11.8008 4.71094C12.4922 3.88672 12.4219 3.13672 12.4219 3C11.7891 3.01953 11.0625 3.44922 10.6641 3.94922C10.2188 4.42188 9.91406 5.10938 9.99219 5.60156C10.6875 5.64844 11.3438 5.25 11.8008 4.71094Z" fill="white"/>
</svg>
