<svg xmlns="http://www.w3.org/2000/svg" width="18" height="18" viewBox="0 0 18 18" fill="none">
  <path d="M18 9C18 4.0295 13.9705 0 9 0C4.0295 0 0 4.0295 0 9C0 13.4857 3.29625 17.2152 7.59375 17.8907V11.6016H5.30859V9H7.59375V7.01754C7.59375 4.76066 8.9366 3.51562 11.0273 3.51562C12.0234 3.51562 13.0664 3.69141 13.0664 3.69141V5.90625H11.9254C10.8026 5.90625 10.4062 6.60006 10.4062 7.3125V9H12.9609L12.5742 11.6016H10.4062V17.8907C14.7037 17.2152 18 13.4857 18 9Z" fill="#1877F2"/>
  <path d="M12.5742 11.6016L12.9609 9H10.4062V7.3125C10.4062 6.60006 10.8026 5.90625 11.9254 5.90625H13.0664V3.69141C13.0664 3.69141 12.0234 3.51562 11.0273 3.51562C8.9366 3.51562 7.59375 4.76066 7.59375 7.01754V9H5.30859V11.6016H7.59375V17.8907C8.05301 17.9638 8.52367 18 9 18C9.47633 18 9.94699 17.9638 10.4062 17.8907V11.6016H12.5742Z" fill="white"/>
</svg>
