<svg xmlns="http://www.w3.org/2000/svg" width="70" height="45" viewBox="0 0 70 45">
  <rect width="70" height="45" rx="5" fill="#ffffff"/>
  <g transform="translate(5, 9)">
    <rect width="60" height="27" rx="3" fill="#4D4D4D"/>
    <path d="M44 13.5a10 10 0 01-9 9.9h-13c3-3 5-6.4 5-9.9s-2-6.9-5-9.9h13a10 10 0 019 9.9z" fill="#F48024"/>
    <path d="M16 13.5c0 5.5 4.5 10 10 10s10-4.5 10-10-4.5-10-10-10-10 4.5-10 10z" fill="#F48024"/>
    <path d="M7.5 8h3.1l.85 3.2L12.3 8h3.1v8.9h-2v-6.5l-1.5 6.5h-1.9l-1.5-6.5v6.5h-3V8zm11.9 0v8.9h5.9v-1.7h-3.9v-2h3.8v-1.7h-3.8v-1.7h3.9V8h-5.9zm8.2 0h3.2c2.2 0 3.6 1.3 3.6 3.3 0 2.1-1.4 3.4-3.6 3.4h-1.3v2.2h-2V8zm3.2 4.9c1 0 1.5-.6 1.5-1.6 0-.9-.5-1.5-1.5-1.5h-1.2v3.1h1.2zm8.1.1h-2.1V8h2.1v5zm6.6-5v8.9h-2.1l-3.2-5.8v5.8h-2V8h2.2l3.1 5.7V8h2z" fill="#ffffff"/>
  </g>
</svg>
