<svg xmlns="http://www.w3.org/2000/svg" width="70" height="45" viewBox="0 0 70 45">
  <rect width="70" height="45" rx="5" fill="#ffffff"/>
  <path d="M29.75 16.5h-5.5l-3.45 22h5.5l3.45-22z" fill="#00579f"/>
  <path d="M48.95 16.74c-1.1-.45-2.8-.96-5-1-5.51 0-9.4 3.12-9.43 7.58-.04 3.3 2.76 5.13 4.88 6.23 2.18 1.13 2.9 1.85 2.9 2.85-.02 1.53-1.74 2.24-3.34 2.24-2.24 0-3.42-.34-5.25-1.2l-.72-.36-.79 5.14c1.3.64 3.7 1.2 6.2 1.22 5.85 0 9.66-3.08 9.7-7.84.02-2.62-1.43-4.6-4.55-6.23-1.9-1.06-3.05-1.77-3.04-2.84 0-.95 1.01-1.97 3.2-1.97 1.83-.04 3.14.4 4.17.88l.5.24.76-4.94" fill="#00579f"/>
  <path d="M56.43 16.5H52c-1.38 0-2.42.43-3.03 1.98l-8.57 20.52h6.06s.99-2.93 1.22-3.58h7.45c.17.83.7 3.58.7 3.58h5.34L56.43 16.5zm-3.97 14.54c.24-.7 2.32-6.7 2.32-6.7-.04.05.48-1.4.77-2.3l.4 2.02s1.12 5.75 1.35 7-1.83 0-4.84 0z" fill="#00579f"/>
  <path d="M24.46 16.5L18.8 30.5l-.59-3.25c-1.04-3.75-4.28-7.8-7.9-9.82L15 38.5h6.16l10.71-22h-7.41" fill="#00579f"/>
  <path d="M14.25 16.5H4.36L4 17.06c7.9 2.15 13.14 7.34 15.28 13.57l-2.2-11.82c-.38-1.63-1.48-2.16-2.83-2.3" fill="#faa61a"/>
</svg>
